<svg width="48" height="48" viewBox="0 0 48 48" fill="none" xmlns="http://www.w3.org/2000/svg">
<rect width="30" height="32" transform="translate(9 9)" fill="#EAEAEA"/>
<path fill-rule="evenodd" clip-rule="evenodd" d="M48 24C48 30.3652 45.4714 36.4697 40.9706 40.9706C36.4697 45.4714 30.3652 48 24 48C17.6348 48 11.5303 45.4714 7.02944 40.9706C2.52856 36.4697 0 30.3652 0 24C0 17.6348 2.52856 11.5303 7.02944 7.02944C11.5303 2.52856 17.6348 0 24 0C30.3652 0 36.4697 2.52856 40.9706 7.02944C45.4714 11.5303 48 17.6348 48 24ZM12.8571 10.2857C12.1752 10.2857 11.5211 10.5566 11.0389 11.0389C10.5566 11.5211 10.2857 12.1752 10.2857 12.8571C10.2857 13.5391 10.5566 14.1932 11.0389 14.6754C11.5211 15.1577 12.1752 15.4286 12.8571 15.4286H18.8571C21.2503 15.4286 23.3143 16.8309 24.2811 18.8571H12.8571C12.1752 18.8571 11.5211 19.1281 11.0389 19.6103C10.5566 20.0925 10.2857 20.7466 10.2857 21.4286C10.2857 22.1106 10.5566 22.7646 11.0389 23.2468C11.5211 23.7291 12.1752 24 12.8571 24H24.2811C23.3143 26.0263 21.2503 27.4286 18.8571 27.4286H12.8571C12.3489 27.429 11.8522 27.5801 11.4297 27.8627C11.0073 28.1452 10.678 28.5467 10.4836 29.0163C10.2891 29.4859 10.2382 30.0025 10.3373 30.501C10.4363 30.9995 10.6808 31.4575 11.04 31.8171L19.6114 40.3886C20.0989 40.8428 20.7436 41.0901 21.4098 41.0783C22.076 41.0666 22.7116 40.7967 23.1827 40.3256C23.6538 39.8544 23.9237 39.2188 23.9355 38.5526C23.9472 37.8865 23.6999 37.2417 23.2457 36.7543L19.0629 32.5714C21.536 32.5262 23.9238 31.6594 25.85 30.1075C27.7762 28.5556 29.1313 26.4069 29.7017 24H35.1429C35.8248 24 36.4789 23.7291 36.9611 23.2468C37.4434 22.7646 37.7143 22.1106 37.7143 21.4286C37.7143 20.7466 37.4434 20.0925 36.9611 19.6103C36.4789 19.1281 35.8248 18.8571 35.1429 18.8571H29.7017C29.4161 17.6398 28.9244 16.4802 28.248 15.4286H35.1429C35.8248 15.4286 36.4789 15.1577 36.9611 14.6754C37.4434 14.1932 37.7143 13.5391 37.7143 12.8571C37.7143 12.1752 37.4434 11.5211 36.9611 11.0389C36.4789 10.5566 35.8248 10.2857 35.1429 10.2857H12.8571Z" fill="black"/>
</svg>
